<svg width="36" height="36" viewBox="0 0 36 36" fill="none" xmlns="http://www.w3.org/2000/svg">
    <path fill-rule="evenodd" clip-rule="evenodd" d="M13.9849 26.5504V10.6312H15.6771L24.6355 22.988V10.6312H26.5667V26.5504H24.8378L15.9158 14.1817V26.5504H13.9849Z" fill="black"/>
    <path fill-rule="evenodd" clip-rule="evenodd" d="M10.7809 4.75836C11.9393 4.75836 12.8786 5.69766 12.8786 6.8561C12.8786 8.01454 11.9393 8.95384 10.7809 8.95384C9.62243 8.95384 8.68311 8.01454 8.68311 6.8561C8.68311 5.69766 9.62243 4.75836 10.7809 4.75836Z" fill="#FF0808"/>
    <path fill-rule="evenodd" clip-rule="evenodd" d="M17.9999 0.498319C8.33399 0.498319 0.498319 8.33423 0.498319 18.0001C0.498319 27.6658 8.33399 35.5017 17.9999 35.5017C27.6658 35.5017 35.5017 27.6658 35.5017 18.0001C35.5017 8.33423 27.6658 0.498319 17.9999 0.498319ZM0 18.0001C0 8.05902 8.05877 0 17.9999 0C27.941 0 36 8.05902 36 18.0001C36 27.941 27.941 36 17.9999 36C8.05877 36 0 27.941 0 18.0001Z" fill="#ddd"/>
    <path fill-rule="evenodd" clip-rule="evenodd" d="M9.81934 10.6335H11.7421V26.5402H9.81934V10.6335Z" fill="black"/>
</svg>
